<?xml version="1.0" standalone="no"?>
<!DOCTYPE svg PUBLIC "-//W3C//DTD SVG 20010904//EN"
 "http://www.w3.org/TR/2001/REC-SVG-20010904/DTD/svg10.dtd">
<svg version="1.0" xmlns="http://www.w3.org/2000/svg"
 width="256.000000pt" height="256.000000pt" viewBox="0 0 256.000000 256.000000"
 preserveAspectRatio="xMidYMid meet">

<g transform="translate(0.000000,256.000000) scale(0.100000,-0.100000)"
fill="#000000" stroke="none">
<path d="M0 1280 l0 -1280 1280 0 1280 0 0 1280 0 1280 -1280 0 -1280 0 0
-1280z m878 769 c107 -24 213 -69 294 -123 l64 -43 150 -6 c166 -6 264 -28
422 -93 118 -49 286 -144 365 -208 27 -21 16 -44 -51 -110 -57 -57 -144 -107
-212 -121 l-35 -7 20 22 c20 22 20 22 0 36 -36 27 -129 49 -206 48 -61 0 -85
-4 -124 -24 -65 -34 -69 -50 -13 -50 23 0 61 -5 83 -11 51 -13 54 -13 90 -4
28 8 29 7 15 -10 -13 -17 -13 -18 0 -13 60 22 75 18 48 -12 -7 -7 4 -3 25 9
42 25 47 17 15 -24 -53 -68 -158 -80 -373 -45 -222 36 -333 24 -435 -48 -142
-98 -159 -253 -40 -355 51 -43 76 -50 37 -9 -34 35 -57 92 -57 139 l1 38 15
-35 c35 -82 125 -142 240 -160 l68 -11 49 55 c94 108 248 189 382 202 l60 6
-77 -51 c-88 -59 -187 -162 -220 -230 -40 -82 -30 -191 27 -285 32 -53 33 -57
12 -51 -44 13 -130 71 -164 110 -20 22 -46 63 -59 91 l-24 51 -62 2 c-321 11
-561 198 -585 456 -6 65 -4 68 38 78 l26 7 5 -78 c6 -90 31 -151 89 -214 l39
-43 -26 53 c-86 178 -28 372 141 466 l30 17 -40 -6 c-123 -18 -282 -98 -418
-209 -32 -26 -61 -45 -64 -42 -3 3 37 48 90 100 77 75 98 102 107 137 21 76
65 162 116 224 67 83 84 119 84 184 0 74 -32 126 -107 177 -32 21 -62 42 -68
47 -15 13 117 -2 213 -24z m526 -835 c16 -6 18 -16 14 -75 -4 -79 -12 -92 -35
-58 -27 40 -82 88 -137 120 l-51 31 95 -5 c52 -3 103 -9 114 -13z"/>
<path d="M948 1731 c-20 -10 -50 -29 -65 -41 -32 -25 -103 -110 -103 -125 0
-5 13 7 30 26 16 20 63 62 105 94 91 70 97 78 33 46z"/>
<path d="M1566 1650 c41 -16 53 -26 57 -48 7 -32 53 -60 71 -42 5 5 42 10 81
11 38 0 63 3 55 6 -8 3 -55 23 -105 45 -62 28 -108 42 -150 44 l-60 5 51 -21z"/>
<path d="M1229 1618 c-38 -74 -24 -164 32 -213 22 -20 22 -20 14 0 -28 71 -34
96 -35 147 0 31 4 68 10 82 15 40 3 31 -21 -16z"/>
<path d="M1311 1611 c-33 -64 -23 -162 21 -198 13 -11 13 -5 0 49 -12 48 -13
74 -5 122 6 33 9 63 7 64 -1 2 -12 -14 -23 -37z"/>
<path d="M1138 1603 c-21 -51 -16 -116 14 -161 15 -23 36 -45 46 -51 14 -8 12
2 -12 52 -24 48 -31 74 -31 124 0 35 -1 63 -3 63 -1 0 -8 -12 -14 -27z"/>
<path d="M1970 1479 c0 -5 5 -7 10 -4 6 3 10 8 10 11 0 2 -4 4 -10 4 -5 0 -10
-5 -10 -11z"/>
</g>
</svg>
